<?xml version="1.0" encoding="UTF-8"?>
<svg id="Layer_2" data-name="Layer 2" xmlns="http://www.w3.org/2000/svg" xmlns:xlink="http://www.w3.org/1999/xlink" viewBox="0 0 220 40.24">
  <defs>
    <style>
      .cls-1 {
        fill: url(#linear-gradient);
      }
    </style>
    <linearGradient id="linear-gradient" x1="-183.55" y1="435.48" x2="-182.55" y2="435.48" gradientTransform="translate(-3921.75 19017.51) rotate(4.88) scale(200.11 -44.24) skewX(24.11)" gradientUnits="userSpaceOnUse">
      <stop offset="0" stop-color="#958abf"/>
      <stop offset="1" stop-color="#e5a9ab"/>
    </linearGradient>
  </defs>
  <g id="Layer_1-2" data-name="Layer 1">
    <g id="_25f1debd-e05c-473b-aa6b-2771ec9ad29c" data-name="25f1debd-e05c-473b-aa6b-2771ec9ad29c">
      <path class="cls-1" d="M18.31,40.24c7.06,0,13.24-4.04,16.27-9.98l-7.85-3.97c-1.53,3.09-4.62,5.06-8.42,5.06-5.43,0-9.48-4.01-9.48-9.41s4.04-9.37,9.48-9.37c3.8,0,6.89,1.94,8.42,5.03l7.85-3.97C31.55,7.68,25.37,3.63,18.31,3.63,8.12,3.63,0,11.85,0,21.94s8.12,18.31,18.31,18.31Zm32.84,0c8.32,0,13.52-5.16,13.52-12.36s-5.2-12.36-13.52-12.36-13.55,5.16-13.55,12.36,5.2,12.36,13.55,12.36Zm0-7.68c-2.78-.03-4.75-1.94-4.75-4.69s1.97-4.62,4.75-4.69c2.75,.07,4.72,1.97,4.72,4.69s-1.97,4.65-4.72,4.69Zm18.37,7.2h8.8V0h-8.8V39.77Zm27.24,.48c8.32,0,13.48-5.16,13.48-12.36s-5.16-12.36-13.48-12.36-13.55,5.16-13.55,12.36,5.16,12.36,13.55,12.36Zm0-7.68c-2.82-.03-4.75-1.94-4.75-4.69s1.94-4.62,4.75-4.69c2.72,.07,4.69,1.97,4.69,4.69s-1.97,4.65-4.69,4.69Zm33.45-17.05c-2.62,0-4.82,1.43-6.32,3.8v-3.33h-8.8v23.77h8.8v-10.94c0-3.74,2.45-5.64,5.94-5.64,.95,0,1.8,.1,2.38,.24v-7.61c-.51-.17-1.29-.31-2-.31Zm9.37-3.4c2.55,0,4.72-2.14,4.72-4.69s-2.17-4.65-4.72-4.65-4.69,2.11-4.69,4.65,2.14,4.69,4.69,4.69Zm-4.38,27.64h8.8V16h-8.8v23.77Zm34.54-23.77h-20.04v7.06h7.47l-8.86,16.71h20.89v-7.06h-8.46l9-16.71Zm15.38-.54c-7.98,0-13.31,4.75-13.31,12.43s5.3,12.36,13.55,12.36c6.96,0,11.28-3.43,12.36-8.63h-8.39c-.41,1.56-1.77,2.45-4.04,2.45-3.16,0-4.38-1.66-4.62-4.75h17.35v-1.49c.03-7.61-4.99-12.36-12.91-12.36Zm.17,6.49c2.14,0,3.33,.88,3.87,2.51h-8.01c.58-1.63,1.83-2.51,4.14-2.51Zm32.7-6.42c-2.62,0-4.82,1.43-6.32,3.8v-3.33h-8.8v23.77h8.8v-10.94c0-3.74,2.45-5.64,5.94-5.64,.95,0,1.8,.1,2.38,.24v-7.61c-.54-.17-1.29-.31-2-.31Z"/>
    </g>
  </g>
</svg>